<svg xmlns="http://www.w3.org/2000/svg" viewBox="0 0 889.42 889.42"><defs><style>.cls-1{fill:#fffc31;}.cls-2{fill:#d30c7b;}.cls-3{fill:#2274a5;}</style></defs><title>background-repeat</title><g id="Layer_2" data-name="Layer 2"><g id="Layer_1-2" data-name="Layer 1"><rect class="cls-1" x="510.34" y="287.98" width="313.45" height="313.46" transform="translate(-119.08 601.94) rotate(-45)"/><path d="M667.06,223.77,888,444.71,667.07,665.65,446.13,444.71,667.06,223.77m0-1.41L444.71,444.71,667.07,667.06,889.42,444.71,667.06,222.36Z"/><rect class="cls-2" x="287.99" y="65.62" width="313.45" height="313.46" transform="translate(-26.97 379.58) rotate(-45)"/><path d="M444.71,1.41,665.65,222.36,444.71,443.29,223.77,222.35,444.71,1.41m0-1.41L222.36,222.35,444.71,444.71,667.06,222.36,444.71,0Z"/><rect class="cls-1" x="65.63" y="287.98" width="313.46" height="313.46" transform="translate(-249.33 287.48) rotate(-45)"/><path d="M222.36,223.76,443.3,444.71,222.36,665.65,1.41,444.71,222.36,223.76m0-1.41L0,444.71,222.36,667.06,444.71,444.71,222.36,222.35Z"/><rect class="cls-3" x="287.98" y="510.33" width="313.46" height="313.46" transform="translate(-341.43 509.84) rotate(-45)"/><path d="M444.71,446.12,665.66,667.06,444.71,888,223.77,667.06,444.71,446.12m0-1.41L222.36,667.06,444.71,889.42,667.07,667.06,444.71,444.71Z"/></g></g></svg>