<svg xmlns="http://www.w3.org/2000/svg" viewBox="0 0 683.7 683.7"><defs><style>.cls-1{fill:#d30c7b;}.cls-2{fill:#fffc31;}.cls-3{fill:#2274a5;}</style></defs><title>Asset 1</title><g id="Layer_2" data-name="Layer 2"><g id="Layer_1-2" data-name="Layer 1"><rect x="366.87" y="110.44" width="120.8" height="120.81" transform="translate(4.34 352.17) rotate(-45)"/><rect class="cls-1" x="281.45" y="25.02" width="120.8" height="120.81" transform="translate(39.72 266.74) rotate(-45)"/><rect class="cls-2" x="196.02" y="110.44" width="120.81" height="120.81" transform="translate(-45.7 231.36) rotate(-45)"/><rect class="cls-3" x="281.44" y="195.87" width="120.81" height="120.81" transform="translate(-81.09 316.78) rotate(-45)"/><rect x="537.87" y="281.44" width="120.8" height="120.81" transform="translate(-66.49 523.17) rotate(-45)"/><rect class="cls-1" x="452.45" y="196.02" width="120.8" height="120.81" transform="translate(-31.11 437.74) rotate(-45)"/><rect class="cls-2" x="367.02" y="281.44" width="120.81" height="120.81" transform="translate(-116.53 402.36) rotate(-45)"/><rect class="cls-3" x="452.44" y="366.87" width="120.81" height="120.81" transform="translate(-151.92 487.78) rotate(-45)"/><rect x="195.87" y="281.44" width="120.8" height="120.81" transform="translate(-166.66 281.34) rotate(-45)"/><rect class="cls-1" x="110.45" y="196.02" width="120.8" height="120.81" transform="translate(-131.28 195.91) rotate(-45)"/><rect class="cls-2" x="25.02" y="281.44" width="120.81" height="120.81" transform="translate(-216.7 160.53) rotate(-45)"/><rect class="cls-3" x="110.44" y="366.87" width="120.81" height="120.81" transform="translate(-252.09 245.95) rotate(-45)"/><rect x="366.87" y="452.44" width="120.8" height="120.81" transform="translate(-237.49 452.34) rotate(-45)"/><rect class="cls-1" x="281.45" y="367.02" width="120.8" height="120.81" transform="translate(-202.11 366.91) rotate(-45)"/><rect class="cls-2" x="196.02" y="452.44" width="120.81" height="120.81" transform="translate(-287.53 331.53) rotate(-45)"/><rect class="cls-3" x="281.44" y="537.87" width="120.81" height="120.81" transform="translate(-322.92 416.95) rotate(-45)"/></g></g></svg>